# xmcd CD database file
#
# Track frame offsets:
#	150
#	34047
#	121008
#	143669
#	203352
#	262049
#
# Disc length: 4467 seconds
#
# Revision: 0
# Processed by: cddbd v1.5.1PL2 Copyright (c) Steve Scherf et al.
# Submitted via: Feurio! 1.68 - http://www.feurio.com
#
DISCID=47117106
DTITLE=Chicken Shack - Live im Franz-Club
DYEAR=1900
DGENRE=Bluesrock
TTITLE0=I'd Rather Go Blind
TTITLE1=Broken Hearted Melodie
TTITLE2=Love Her With A Feeling
TTITLE3=Chicken Shack Opera
TTITLE4=Sweetest Little Thing
TTITLE5=Poor Boy
EXTD=
EXTT0=
EXTT1=
EXTT2=
EXTT3=
EXTT4=
EXTT5=
PLAYORDER=
